<svg width="324" height="328" viewBox="0 0 324 328" fill="none" xmlns="http://www.w3.org/2000/svg">
<g filter="url(#filter0_i_2_30)">
<circle cx="225.236" cy="98.7642" r="66.4308" fill="url(#paint0_linear_2_30)"/>
</g>
<g filter="url(#filter1_if_2_30)">
<circle cx="225.236" cy="98.7642" r="66.4308" fill="url(#paint1_linear_2_30)"/>
</g>
<g filter="url(#filter2_f_2_30)">
<ellipse cx="146.183" cy="221.661" rx="101.639" ry="61.7807" fill="#A9BCDB" style="mix-blend-mode:overlay"/>
</g>
<g filter="url(#filter3_bi_2_30)">
<mask id="path-4-inside-1_2_30" fill="white">
<path fill-rule="evenodd" clip-rule="evenodd" d="M237.286 220.997L156.135 220.997L68.7039 220.997V220.939C67.8758 220.977 67.043 220.997 66.206 220.997C35.1643 220.997 10 194.229 10 161.209C10 128.189 35.1643 101.421 66.206 101.421C71.1233 101.421 75.8931 102.093 80.4388 103.355C92.2191 71.1227 121.669 48.2767 156.135 48.2767C198.872 48.2767 233.896 83.4027 237.085 127.994C237.164 127.994 237.243 127.994 237.322 127.994C261.466 127.994 281.038 148.813 281.038 174.495C281.038 199.286 262.801 219.545 239.82 220.922V220.997H237.358C237.346 220.997 237.334 220.997 237.322 220.997C237.31 220.997 237.298 220.997 237.286 220.997Z"/>
</mask>
<path fill-rule="evenodd" clip-rule="evenodd" d="M237.286 220.997L156.135 220.997L68.7039 220.997V220.939C67.8758 220.977 67.043 220.997 66.206 220.997C35.1643 220.997 10 194.229 10 161.209C10 128.189 35.1643 101.421 66.206 101.421C71.1233 101.421 75.8931 102.093 80.4388 103.355C92.2191 71.1227 121.669 48.2767 156.135 48.2767C198.872 48.2767 233.896 83.4027 237.085 127.994C237.164 127.994 237.243 127.994 237.322 127.994C261.466 127.994 281.038 148.813 281.038 174.495C281.038 199.286 262.801 219.545 239.82 220.922V220.997H237.358C237.346 220.997 237.334 220.997 237.322 220.997C237.31 220.997 237.298 220.997 237.286 220.997Z" fill="url(#paint2_linear_2_30)"/>
<path d="M237.286 220.997V221.997V220.997ZM156.135 220.997V219.997V220.997ZM68.7039 220.997H67.7039V221.997H68.7039V220.997ZM68.7039 220.939H69.7039V219.891L68.6574 219.94L68.7039 220.939ZM80.4388 103.355L80.1713 104.318L81.061 104.565L81.378 103.698L80.4388 103.355ZM237.085 127.994L236.088 128.066L236.154 129L237.091 128.994L237.085 127.994ZM239.82 220.922L239.76 219.924L238.82 219.98V220.922H239.82ZM239.82 220.997V221.997H240.82V220.997H239.82ZM237.286 219.997L156.135 219.997V221.997L237.286 221.997V219.997ZM156.135 219.997L68.7039 219.997V221.997L156.135 221.997V219.997ZM69.7039 220.997V220.939H67.7039V220.997H69.7039ZM68.6574 219.94C67.8448 219.978 67.0275 219.997 66.206 219.997V221.997C67.0585 221.997 67.9068 221.977 68.7504 221.938L68.6574 219.94ZM66.206 219.997C35.7739 219.997 11 193.736 11 161.209H9C9 194.722 34.5547 221.997 66.206 221.997V219.997ZM11 161.209C11 128.682 35.7739 102.421 66.206 102.421V100.421C34.5547 100.421 9 127.696 9 161.209H11ZM66.206 102.421C71.0317 102.421 75.7116 103.08 80.1713 104.318L80.7062 102.391C76.0746 101.106 71.2148 100.421 66.206 100.421V102.421ZM81.378 103.698C93.0299 71.8174 122.133 49.2767 156.135 49.2767V47.2767C121.205 47.2767 91.4083 70.428 79.4995 103.012L81.378 103.698ZM156.135 49.2767C198.292 49.2767 232.932 83.9405 236.088 128.066L238.083 127.923C234.861 82.865 199.452 47.2767 156.135 47.2767V49.2767ZM237.091 128.994C237.168 128.994 237.245 128.994 237.322 128.994V126.994C237.241 126.994 237.16 126.994 237.079 126.994L237.091 128.994ZM237.322 128.994C260.856 128.994 280.038 149.306 280.038 174.495H282.038C282.038 148.32 262.075 126.994 237.322 126.994V128.994ZM280.038 174.495C280.038 198.807 262.164 218.582 239.76 219.924L239.88 221.92C263.438 220.509 282.038 199.764 282.038 174.495H280.038ZM238.82 220.922V220.997H240.82V220.922H238.82ZM239.82 219.997H237.358V221.997H239.82V219.997ZM237.358 219.997C237.352 219.997 237.345 219.997 237.339 219.997C237.333 219.997 237.328 219.997 237.322 219.997V221.997C237.329 221.997 237.335 221.997 237.341 221.997C237.347 221.997 237.352 221.997 237.358 221.997V219.997ZM237.322 219.997C237.317 219.997 237.311 219.997 237.305 219.997C237.299 219.997 237.293 219.997 237.286 219.997V221.997C237.292 221.997 237.298 221.997 237.304 221.997C237.31 221.997 237.316 221.997 237.322 221.997V219.997Z" fill="white" fill-opacity="0.1" style="mix-blend-mode:overlay" mask="url(#path-4-inside-1_2_30)"/>
</g>
<g filter="url(#filter4_if_2_30)">
<circle cx="225.236" cy="98.7642" r="66.4308" fill="url(#paint3_linear_2_30)" fill-opacity="0.5"/>
</g>
<rect x="158.805" y="133.308" width="10.6289" height="65.1022" rx="5.31447" fill="url(#paint4_linear_2_30)"/>
<rect x="186.706" y="149.252" width="10.6289" height="82.3742" rx="5.31447" fill="url(#paint5_linear_2_30)"/>
<rect x="214.607" y="134.637" width="10.6289" height="65.1022" rx="5.31447" fill="url(#paint6_linear_2_30)"/>
<defs>
<filter id="filter0_i_2_30" x="158.805" y="32.3333" width="132.862" height="136.862" filterUnits="userSpaceOnUse" color-interpolation-filters="sRGB">
<feFlood flood-opacity="0" result="BackgroundImageFix"/>
<feBlend mode="normal" in="SourceGraphic" in2="BackgroundImageFix" result="shape"/>
<feColorMatrix in="SourceAlpha" type="matrix" values="0 0 0 0 0 0 0 0 0 0 0 0 0 0 0 0 0 0 127 0" result="hardAlpha"/>
<feOffset dy="4"/>
<feGaussianBlur stdDeviation="8"/>
<feComposite in2="hardAlpha" operator="arithmetic" k2="-1" k3="1"/>
<feColorMatrix type="matrix" values="0 0 0 0 1 0 0 0 0 1 0 0 0 0 1 0 0 0 1 0"/>
<feBlend mode="overlay" in2="shape" result="effect1_innerShadow_2_30"/>
</filter>
<filter id="filter1_if_2_30" x="126.805" y="0.333344" width="196.862" height="196.862" filterUnits="userSpaceOnUse" color-interpolation-filters="sRGB">
<feFlood flood-opacity="0" result="BackgroundImageFix"/>
<feBlend mode="normal" in="SourceGraphic" in2="BackgroundImageFix" result="shape"/>
<feColorMatrix in="SourceAlpha" type="matrix" values="0 0 0 0 0 0 0 0 0 0 0 0 0 0 0 0 0 0 127 0" result="hardAlpha"/>
<feOffset dy="4"/>
<feGaussianBlur stdDeviation="8"/>
<feComposite in2="hardAlpha" operator="arithmetic" k2="-1" k3="1"/>
<feColorMatrix type="matrix" values="0 0 0 0 1 0 0 0 0 1 0 0 0 0 1 0 0 0 1 0"/>
<feBlend mode="overlay" in2="shape" result="effect1_innerShadow_2_30"/>
<feGaussianBlur stdDeviation="16" result="effect2_foregroundBlur_2_30"/>
</filter>
<filter id="filter2_f_2_30" x="0.544018" y="115.88" width="291.278" height="211.561" filterUnits="userSpaceOnUse" color-interpolation-filters="sRGB">
<feFlood flood-opacity="0" result="BackgroundImageFix"/>
<feBlend mode="normal" in="SourceGraphic" in2="BackgroundImageFix" result="shape"/>
<feGaussianBlur stdDeviation="22" result="effect1_foregroundBlur_2_30"/>
</filter>
<filter id="filter3_bi_2_30" x="-6" y="32.2767" width="303.038" height="204.72" filterUnits="userSpaceOnUse" color-interpolation-filters="sRGB">
<feFlood flood-opacity="0" result="BackgroundImageFix"/>
<feGaussianBlur in="BackgroundImageFix" stdDeviation="8"/>
<feComposite in2="SourceAlpha" operator="in" result="effect1_backgroundBlur_2_30"/>
<feBlend mode="normal" in="SourceGraphic" in2="effect1_backgroundBlur_2_30" result="shape"/>
<feColorMatrix in="SourceAlpha" type="matrix" values="0 0 0 0 0 0 0 0 0 0 0 0 0 0 0 0 0 0 127 0" result="hardAlpha"/>
<feOffset dy="4"/>
<feGaussianBlur stdDeviation="9"/>
<feComposite in2="hardAlpha" operator="arithmetic" k2="-1" k3="1"/>
<feColorMatrix type="matrix" values="0 0 0 0 1 0 0 0 0 1 0 0 0 0 1 0 0 0 1 0"/>
<feBlend mode="normal" in2="shape" result="effect2_innerShadow_2_30"/>
</filter>
<filter id="filter4_if_2_30" x="126.805" y="0.333344" width="196.862" height="196.862" filterUnits="userSpaceOnUse" color-interpolation-filters="sRGB">
<feFlood flood-opacity="0" result="BackgroundImageFix"/>
<feBlend mode="normal" in="SourceGraphic" in2="BackgroundImageFix" result="shape"/>
<feColorMatrix in="SourceAlpha" type="matrix" values="0 0 0 0 0 0 0 0 0 0 0 0 0 0 0 0 0 0 127 0" result="hardAlpha"/>
<feOffset dy="4"/>
<feGaussianBlur stdDeviation="8"/>
<feComposite in2="hardAlpha" operator="arithmetic" k2="-1" k3="1"/>
<feColorMatrix type="matrix" values="0 0 0 0 1 0 0 0 0 1 0 0 0 0 1 0 0 0 1 0"/>
<feBlend mode="overlay" in2="shape" result="effect1_innerShadow_2_30"/>
<feGaussianBlur stdDeviation="16" result="effect2_foregroundBlur_2_30"/>
</filter>
<linearGradient id="paint0_linear_2_30" x1="189.363" y1="139.951" x2="247.158" y2="60.8986" gradientUnits="userSpaceOnUse">
<stop stop-color="#E07512"/>
<stop offset="1" stop-color="#F5C20B"/>
</linearGradient>
<linearGradient id="paint1_linear_2_30" x1="189.363" y1="139.951" x2="247.158" y2="60.8986" gradientUnits="userSpaceOnUse">
<stop stop-color="#E07512"/>
<stop offset="1" stop-color="#F5C20B"/>
</linearGradient>
<linearGradient id="paint2_linear_2_30" x1="106.175" y1="220.997" x2="104.761" y2="65.5502" gradientUnits="userSpaceOnUse">
<stop stop-color="#B8C9E3" stop-opacity="0.7"/>
<stop offset="1" stop-color="white" stop-opacity="0.9"/>
</linearGradient>
<linearGradient id="paint3_linear_2_30" x1="189.363" y1="139.951" x2="247.158" y2="60.8986" gradientUnits="userSpaceOnUse">
<stop stop-color="#E07512"/>
<stop offset="1" stop-color="#F5C20B"/>
</linearGradient>
<linearGradient id="paint4_linear_2_30" x1="169.434" y1="198.41" x2="169.443" y2="133.308" gradientUnits="userSpaceOnUse">
<stop stop-color="#FFFEFE"/>
<stop offset="1" stop-color="white" stop-opacity="0"/>
</linearGradient>
<linearGradient id="paint5_linear_2_30" x1="197.335" y1="231.626" x2="197.335" y2="156.817" gradientUnits="userSpaceOnUse">
<stop stop-color="#FFFEFE"/>
<stop offset="1" stop-color="white" stop-opacity="0"/>
</linearGradient>
<linearGradient id="paint6_linear_2_30" x1="225.236" y1="199.739" x2="225.236" y2="139.287" gradientUnits="userSpaceOnUse">
<stop stop-color="#FFFEFE"/>
<stop offset="1" stop-color="white" stop-opacity="0"/>
</linearGradient>
</defs>
</svg>
